<svg xmlns="http://www.w3.org/2000/svg" width="1024" height="1024" viewBox="0 0 1024 1024" fill="none">
  <defs>
    <clipPath id="icon-clip">
      <rect x="0" y="0" width="1024" height="1024" rx="160"/>
    </clipPath>
  </defs>

  <!-- Background -->
  <!-- Generated by: /home/nksm/.local/share/souko/root/github.com/gifnksm/numelace/scripts/generate_icon_svg -->

  <!-- 3x3 Sudoku grid -->
  <rect x="102" y="102" width="820" height="820" rx="48" fill="none" stroke="#38424A" stroke-width="60"/>
  <rect x="132" y="132" width="760" height="760" rx="18" fill="#FFFFFF" stroke="none"/>
  <g stroke="#38424A" stroke-width="20" fill="none">
    <line x1="385.333" y1="102" x2="385.333" y2="922"/>
    <line x1="638.667" y1="102" x2="638.667" y2="922"/>
    <line x1="102" y1="385.333" x2="922" y2="385.333"/>
    <line x1="102" y1="638.667" x2="922" y2="638.667"/>
  </g>

  <!-- Digits -->
  <g fill="#38424A" font-family="Noto Sans, Segoe UI, Helvetica, Arial, sans-serif" font-weight="700" font-size="200" text-anchor="middle" dominant-baseline="central" alignment-baseline="central">
    <text x="258.667" y="258.667">8</text>
    <text x="512" y="258.667">3</text>
    <text x="765.333" y="258.667">6</text>

    <text x="512" y="512">7</text>

    <text x="512" y="765.333">2</text>
    <text x="765.333" y="765.333">5</text>
  </g>

  <!-- Three pens (toward specified cell centers) -->
  <g stroke="#2F5BFF" stroke-width="10" stroke-linecap="round" stroke-linejoin="round" fill="#9EB8FF" clip-path="url(#icon-clip)">
    <!-- Pen 1: toward cell (1, 0) center -->
    <g transform="translate(326.549 444.118) rotate(135)">
      <rect x="-170" y="-24" width="220" height="48" rx="0"/>
      <polygon points="50,-24 96,0 50,24"/>
    </g>

    <!-- Pen 2: toward cell (2, 0) center -->
    <g transform="translate(306.667 682.195) rotate(120)">
      <rect x="-170" y="-24" width="220" height="48" rx="0"/>
      <polygon points="50,-24 96,0 50,24"/>
    </g>

    <!-- Pen 3: toward cell (1, 2) center -->
    <g transform="translate(697.451 444.118) rotate(45)">
      <rect x="-170" y="-24" width="220" height="48" rx="0"/>
      <polygon points="50,-24 96,0 50,24"/>
    </g>
  </g>


</svg>
